<svg xmlns="http://www.w3.org/2000/svg" width="860" height="520" viewBox="0 0 860 520">
<rect width="100%" height="100%" fill="#fbfbf8"/>
<text x="60" y="38" font-family="Arial" font-size="22" font-weight="700">TS-DFM Early Synthetic Experiments</text>
<text x="60" y="62" font-family="Arial" font-size="13" fill="#555">Compact scaffold, synthetic reaction triplets, lower is better</text>
<text x="60" y="81" font-family="Arial" font-size="15" font-weight="700">RMSD / DMAE by seed</text>
<line x1="60" y1="255" x2="800" y2="255" stroke="#333"/>
<line x1="60" y1="95" x2="60" y2="255" stroke="#333"/>
<rect x="146.3" y="142.3" width="42" height="112.7" fill="#2f6fbb"/>
<rect x="194.3" y="252.6" width="42" height="2.4" fill="#d17c1f"/>
<text x="146.3" y="277" font-family="Arial" font-size="12">seed 3</text>
<text x="146.3" y="136.3" font-family="Arial" font-size="11">0.419</text>
<text x="194.3" y="246.6" font-family="Arial" font-size="11">0.009</text>
<rect x="393.0" y="115.9" width="42" height="139.1" fill="#2f6fbb"/>
<rect x="441.0" y="227.3" width="42" height="27.7" fill="#d17c1f"/>
<text x="393.0" y="277" font-family="Arial" font-size="12">seed 7</text>
<text x="393.0" y="109.9" font-family="Arial" font-size="11">0.518</text>
<text x="441.0" y="221.3" font-family="Arial" font-size="11">0.103</text>
<rect x="639.7" y="119.6" width="42" height="135.4" fill="#2f6fbb"/>
<rect x="687.7" y="251.5" width="42" height="3.5" fill="#d17c1f"/>
<text x="639.7" y="277" font-family="Arial" font-size="12">seed 11</text>
<text x="639.7" y="113.6" font-family="Arial" font-size="11">0.504</text>
<text x="687.7" y="245.5" font-family="Arial" font-size="11">0.013</text>
<rect x="620" y="88" width="14" height="14" fill="#2f6fbb"/><text x="640" y="100" font-family="Arial" font-size="12">mean RMSD</text>
<rect x="720" y="88" width="14" height="14" fill="#d17c1f"/><text x="740" y="100" font-family="Arial" font-size="12">mean DMAE</text>
<text x="60" y="316" font-family="Arial" font-size="15" font-weight="700">Training loss curves</text>
<line x1="60" y1="450" x2="800" y2="450" stroke="#333"/>
<line x1="60" y1="330" x2="60" y2="450" stroke="#333"/>
<polyline points="60.0,441.1 306.7,447.4 553.3,449.1 800.0,449.7" fill="none" stroke="#2f6fbb" stroke-width="3"/>
<text x="60" y="486" font-family="Arial" font-size="12" fill="#2f6fbb">seed 3</text>
<polyline points="60.0,345.7 306.7,429.4 553.3,439.3 800.0,448.6" fill="none" stroke="#2a9d55" stroke-width="3"/>
<text x="170" y="486" font-family="Arial" font-size="12" fill="#2a9d55">seed 7</text>
<polyline points="60.0,442.7 306.7,447.0 553.3,448.6 800.0,449.6" fill="none" stroke="#c74343" stroke-width="3"/>
<text x="280" y="486" font-family="Arial" font-size="12" fill="#c74343">seed 11</text>
</svg>